<svg xmlns="http://www.w3.org/2000/svg" xmlns:xlink="http://www.w3.org/1999/xlink" width="318" height="59.533" viewBox="0 0 318 59.533">
  <defs>
    <filter id="_11_25号チラシ掲載" x="62" y="0" width="194" height="58" filterUnits="userSpaceOnUse">
      <feOffset dy="3" input="SourceAlpha"/>
      <feGaussianBlur stdDeviation="3" result="blur"/>
      <feFlood flood-opacity="0.161"/>
      <feComposite operator="in" in2="blur"/>
      <feComposite in="SourceGraphic"/>
    </filter>
    <filter id="_11_25号チラシ掲載-2" x="73" y="11" width="172" height="36" filterUnits="userSpaceOnUse">
      <feOffset dy="3" input="SourceAlpha"/>
      <feGaussianBlur stdDeviation="3" result="blur-2"/>
      <feFlood flood-opacity="0.161"/>
      <feComposite operator="in" in2="blur-2"/>
      <feComposite in="SourceGraphic"/>
    </filter>
  </defs>
  <g id="Group_839" data-name="Group 839" transform="translate(-481 -3076.432)">
    <g id="Group_39" data-name="Group 39" transform="translate(1768 -544.101)">
      <path id="Subtraction_1" data-name="Subtraction 1" d="M66,43H0L11,21.5,0,0H66V43Z" transform="translate(-1287 3637)" fill="#e51e78"/>
      <path id="Subtraction_2" data-name="Subtraction 2" d="M66,0H0L11,21.5,0,43H66V0Z" transform="translate(-969 3680.001) rotate(180)" fill="#e51e78"/>
      <path id="Path_19" data-name="Path 19" d="M-1254,3668h33v12.066Z" fill="#a81757"/>
      <path id="Path_20" data-name="Path 20" d="M-1221,3668h-33v12.066Z" transform="translate(219)" fill="#a81757"/>
      <rect id="Rectangle_41" data-name="Rectangle 41" width="252" height="43" transform="translate(-1254 3625)" fill="#ff498d"/>
    </g>
    <g id="Group_645" data-name="Group 645" transform="translate(0 37)">
      <g transform="matrix(1, 0, 0, 1, 481, 3039.43)" filter="url(#_11_25号チラシ掲載)">
        <text id="_11_25号チラシ掲載-3" data-name="11/25号チラシ掲載" transform="translate(159 33)" fill="none" stroke="#eb3274" stroke-width="2" font-size="18" font-family="YuMin-Demibold, YuMincho" font-weight="300"><tspan x="-76.599" y="0">11/25号チラシ掲載</tspan></text>
      </g>
      <g transform="matrix(1, 0, 0, 1, 481, 3039.43)" filter="url(#_11_25号チラシ掲載-2)">
        <text id="_11_25号チラシ掲載-4" data-name="11/25号チラシ掲載" transform="translate(159 33)" fill="#fff" font-size="18" font-family="YuMin-Demibold, YuMincho" font-weight="300"><tspan x="-76.599" y="0">11/25号チラシ掲載</tspan></text>
      </g>
    </g>
  </g>
</svg>
